HIERARCHY
ROOT joint_Root
{
	OFFSET 0.0 0.0 0.0
	CHANNELS 6 Xposition Yposition Zposition Zrotation Xrotation Yrotation 
	JOINT Hips
	{
		OFFSET -0.726466 93.3139 -2.00062
		CHANNELS 6 Xposition Yposition Zposition Zrotation Xrotation Yrotation 
		JOINT Spine
		{
			OFFSET 15.7357 0.0 0.0
			CHANNELS 6 Xposition Yposition Zposition Zrotation Xrotation Yrotation 
			JOINT Chest
			{
				OFFSET 8.98455 -0.406207 0.0
				CHANNELS 6 Xposition Yposition Zposition Zrotation Xrotation Yrotation 
				JOINT Neck
				{
					OFFSET 16.3773 0.0 0.0
					CHANNELS 6 Xposition Yposition Zposition Zrotation Xrotation Yrotation 
					JOINT Head
					{
						OFFSET 6.45672 0.0 0.0
						CHANNELS 6 Xposition Yposition Zposition Zrotation Xrotation Yrotation 
						End Site
						{
							OFFSET 0.0 0.0 0.0
						}
					}
				}
				JOINT Shoulder_L
				{
					OFFSET 12.9942 -0.242716 4.98039
					CHANNELS 6 Xposition Yposition Zposition Zrotation Xrotation Yrotation 
					JOINT UpperArm_L
					{
						OFFSET 5.34809 0.0 0.0
						CHANNELS 6 Xposition Yposition Zposition Zrotation Xrotation Yrotation 
						JOINT LowerArm_L
						{
							OFFSET 24.3286 1.87007e-05 0.0
							CHANNELS 6 Xposition Yposition Zposition Zrotation Xrotation Yrotation 
							JOINT Hand_L
							{
								OFFSET 22.2916 0.0 0.0
								CHANNELS 6 Xposition Yposition Zposition Zrotation Xrotation Yrotation 
								End Site
								{
									OFFSET 0.0 0.0 0.0
								}
							}
						}
					}
				}
				JOINT Shoulder_R
				{
					OFFSET 12.9945 -0.242716 -4.98039
					CHANNELS 6 Xposition Yposition Zposition Zrotation Xrotation Yrotation 
					JOINT UpperArm_R
					{
						OFFSET -5.34813 0.0 0.0
						CHANNELS 6 Xposition Yposition Zposition Zrotation Xrotation Yrotation 
						JOINT LowerArm_R
						{
							OFFSET -24.3289 0.000322201 0.0
							CHANNELS 6 Xposition Yposition Zposition Zrotation Xrotation Yrotation 
							JOINT Hand_R
							{
								OFFSET -22.2915 -0.000108084 0.0
								CHANNELS 6 Xposition Yposition Zposition Zrotation Xrotation Yrotation 
								End Site
								{
									OFFSET 0.0 0.0 0.0
								}
							}
						}
					}
				}
			}
		}
		JOINT UpperLeg_L
		{
			OFFSET -2.19248 -6.46944 0.0
			CHANNELS 6 Xposition Yposition Zposition Zrotation Xrotation Yrotation 
			JOINT LowerLeg_L
			{
				OFFSET 39.0811 0.0 -1.23785e-05
				CHANNELS 6 Xposition Yposition Zposition Zrotation Xrotation Yrotation 
				JOINT Foot_L
				{
					OFFSET 40.9854 0.0 -1.26872e-05
					CHANNELS 6 Xposition Yposition Zposition Zrotation Xrotation Yrotation 
					JOINT Toes_L
					{
						OFFSET 11.7543 0.0 0.0
						CHANNELS 6 Xposition Yposition Zposition Zrotation Xrotation Yrotation 
						End Site
						{
							OFFSET 0.0 0.0 0.0
						}
					}
				}
			}
		}
		JOINT UpperLeg_R
		{
			OFFSET -2.19251 6.46944 0.0
			CHANNELS 6 Xposition Yposition Zposition Zrotation Xrotation Yrotation 
			JOINT LowerLeg_R
			{
				OFFSET -39.0811 -0.00228153 -0.0401928
				CHANNELS 6 Xposition Yposition Zposition Zrotation Xrotation Yrotation 
				JOINT Foot_R
				{
					OFFSET -40.9854 0.0 0.0
					CHANNELS 6 Xposition Yposition Zposition Zrotation Xrotation Yrotation 
					JOINT Toes_R
					{
						OFFSET -11.7543 0.0 0.0
						CHANNELS 6 Xposition Yposition Zposition Zrotation Xrotation Yrotation 
						End Site
						{
							OFFSET 0.0 0.0 0.0
						}
					}
				}
			}
		}
	}
}
MOTION
Frames:	5
Frame Time:	0.0333333
0.000000 0.000000 0.000000 0.000000 0.000000 -0.000000 137.733000 90.130500 137.442000 91.874500 -42.927200 3.125950 15.735700 0.000005 -0.000001 61.129500 83.044600 -60.340900 8.984550 -0.406207 -0.000000 4.487900 -6.727770 1.840840 16.377300 -0.000001 -0.000001 3.673460 -12.085400 2.549430 6.456720 -0.000001 -0.000000 5.004030 -13.959600 7.510310 12.994200 -0.242716 4.980390 -89.209500 -2.735390 -73.873600 5.348090 -0.000007 -0.000001 -53.302400 18.935700 -32.516000 24.328600 0.000019 0.000005 -4.093170 -6.064880 -34.110400 22.291600 -0.000001 0.000005 13.373600 5.516580 -7.216630 12.994500 -0.242716 -4.980390 87.997100 5.003560 -68.151100 -5.348130 -0.000001 -0.000004 -69.831400 20.890000 -2.266490 -24.328900 0.000322 -0.000009 1.641940 11.608600 -8.112500 -22.291500 -0.000108 -0.000004 14.299700 5.300620 0.054935 -2.192480 -6.469440 -0.000000 -176.631000 -19.119400 4.005380 39.081100 -0.000007 -0.000012 -0.081151 0.188728 23.267300 40.985400 -0.000006 -0.000013 -3.051630 0.402729 -74.338300 11.754300 -0.000000 0.000003 -0.000012 -0.000155 -16.583600 -2.192510 6.469440 -0.000001 -164.739000 27.798400 156.410000 -39.081100 -0.002282 -0.040193 -0.004036 0.041789 10.007900 -40.985400 0.000008 0.000006 2.493830 -6.224320 -52.046900 -11.754300 -0.000006 -0.000006 -0.028336 -0.209735 -25.161600
0.000000 0.000000 0.000000 0.000000 0.000000 -0.000000 136.061000 89.514300 139.743000 92.687100 -43.645700 2.863070 15.735700 0.000005 -0.000001 58.680800 83.255600 -57.946500 8.984550 -0.406207 -0.000000 3.826900 -7.027300 1.703590 16.377300 -0.000001 -0.000001 3.250720 -12.058200 2.294270 6.456720 -0.000001 -0.000000 5.075010 -14.054800 7.429210 12.994200 -0.242716 4.980390 -89.226200 -2.679880 -73.887600 5.348090 -0.000007 -0.000001 -53.895000 19.743800 -32.011000 24.328600 0.000019 0.000005 -4.354480 -6.204440 -35.167300 22.291600 -0.000001 0.000005 13.580100 5.521200 -7.413280 12.994500 -0.242716 -4.980390 87.992400 5.045630 -68.269900 -5.348130 -0.000001 -0.000004 -70.510100 20.974300 -2.359270 -24.328900 0.000322 -0.000009 1.312760 12.070400 -6.258810 -22.291500 -0.000108 -0.000004 14.570500 5.296780 0.162404 -2.192480 -6.469440 -0.000000 -177.119000 -19.333800 5.047900 39.081100 -0.000007 -0.000012 -0.013450 0.030572 23.746600 40.985400 -0.000006 -0.000013 -2.839940 0.414034 -75.444300 11.754300 -0.000000 0.000003 -0.396816 -0.492417 -17.443400 -2.192510 6.469440 -0.000001 -162.421000 29.431200 154.468000 -39.081100 -0.002282 -0.040193 -0.005930 0.056145 9.375290 -40.985400 0.000008 0.000006 2.453840 -9.672370 -51.659300 -11.754300 -0.000006 -0.000006 -0.028444 -0.210242 -25.182500
0.000000 0.000000 0.000000 0.000000 0.000000 -0.000000 133.910000 88.997700 142.370000 92.760900 -43.987900 2.579730 15.735700 0.000005 -0.000001 56.610700 83.341600 -55.653200 8.984550 -0.406207 -0.000000 3.439290 -7.356080 2.136160 16.377300 -0.000001 -0.000001 2.903180 -12.118400 1.917810 6.456720 -0.000001 -0.000000 4.837710 -13.972400 7.072710 12.994200 -0.242716 4.980390 -89.273000 -2.538220 -74.012200 5.348090 -0.000007 -0.000001 -55.215100 21.318700 -30.632000 24.328600 0.000019 0.000005 -4.239830 -5.834850 -36.100800 22.291600 -0.000001 0.000005 13.265200 5.527800 -7.698560 12.994500 -0.242716 -4.980390 88.028700 4.953700 -68.267700 -5.348130 -0.000001 -0.000004 -71.242300 21.757300 -2.551140 -24.328900 0.000322 -0.000009 1.117700 12.640500 -5.099400 -22.291500 -0.000108 -0.000004 13.970700 5.284250 0.509777 -2.192480 -6.469440 -0.000000 -176.578000 -18.870900 5.364960 39.081100 -0.000007 -0.000012 -0.023523 0.046989 26.593100 40.985400 -0.000006 -0.000013 -3.965410 0.965569 -73.825200 11.754300 -0.000000 0.000003 -0.017487 -0.155429 -22.946700 -2.192510 6.469440 -0.000001 -162.535000 26.696400 153.655000 -39.081100 -0.002282 -0.040193 -0.034300 0.157785 13.415000 -40.985400 0.000008 0.000006 11.248900 -10.105500 -50.714400 -11.754300 -0.000006 -0.000006 -0.028824 -0.212024 -25.256400
0.000000 0.000000 0.000000 0.000000 0.000000 -0.000000 131.207000 88.614400 145.157000 91.363400 -44.084300 1.826720 15.735700 0.000005 -0.000001 55.743300 83.319800 -54.140100 8.984550 -0.406207 -0.000000 3.410350 -7.572890 3.432370 16.377300 -0.000001 -0.000001 2.737500 -12.219600 1.565830 6.456720 -0.000001 -0.000000 4.411400 -13.772500 6.502360 12.994200 -0.242716 4.980390 -89.423100 -2.036610 -74.181200 5.348090 -0.000007 -0.000001 -56.542000 23.926900 -28.647200 24.328600 0.000019 0.000005 -3.502850 -4.686620 -36.840500 22.291600 -0.000001 0.000005 12.326300 5.532370 -7.900200 12.994500 -0.242716 -4.980390 87.957400 5.111730 -68.184300 -5.348130 -0.000001 -0.000004 -71.570200 22.220200 -2.603600 -24.328900 0.000322 -0.000009 1.184970 13.340500 -5.127050 -22.291500 -0.000108 -0.000004 12.569900 5.275200 0.757149 -2.192480 -6.469440 -0.000000 -174.339000 -18.071500 6.011430 39.081100 -0.000007 -0.000012 -0.051306 0.086876 30.564800 40.985400 -0.000006 -0.000013 -5.862400 2.338670 -71.860900 11.754300 -0.000000 0.000003 0.259473 0.066342 -24.570200 -2.192510 6.469440 -0.000001 -163.305000 21.590000 154.658000 -39.081100 -0.002282 -0.040193 -0.057057 0.192964 17.376100 -40.985400 0.000008 0.000006 18.305200 -11.889300 -49.233800 -11.754300 -0.000006 -0.000006 -0.031150 -0.222685 -25.698800
0.000000 0.000000 0.000000 0.000000 0.000000 -0.000000 128.160000 88.449300 147.991000 89.742800 -44.787400 1.491290 15.735700 0.000005 -0.000001 57.111600 83.287900 -54.839900 8.984550 -0.406207 -0.000000 3.682530 -7.361120 4.780230 16.377300 -0.000001 -0.000001 2.679920 -12.158100 1.464350 6.456720 -0.000001 -0.000000 4.159390 -13.652500 5.990440 12.994200 -0.242716 4.980390 -89.567600 -1.515910 -74.075700 5.348090 -0.000007 -0.000001 -58.254800 27.349000 -26.094800 24.328600 0.000019 0.000005 -1.795930 -2.360700 -37.280500 22.291600 -0.000001 0.000005 11.093200 5.530040 -7.796570 12.994500 -0.242716 -4.980390 87.774400 5.571070 -68.182400 -5.348130 -0.000001 -0.000004 -71.416800 23.072200 -2.654790 -24.328900 0.000322 -0.000009 1.339120 12.544600 -6.147690 -22.291500 -0.000108 -0.000004 10.572500 5.288700 0.386847 -2.192480 -6.469440 -0.000000 -171.744000 -17.415900 5.889440 39.081100 -0.000007 -0.000012 -0.032364 0.043427 36.696600 40.985400 -0.000006 -0.000013 -8.245140 3.179770 -67.432000 11.754300 -0.000000 0.000003 -0.082076 -0.397725 -33.098300 -2.192510 6.469440 -0.000001 -164.794000 15.516200 155.287000 -39.081100 -0.002282 -0.040193 -0.073068 0.166001 24.708200 -40.985400 0.000008 0.000006 16.211400 -17.699800 -52.239200 -11.754300 -0.000006 -0.000006 -0.025915 -0.198090 -24.679400
